<?xml version="1.0" encoding="utf-8"?>
<!-- Generator: Adobe Illustrator 27.7.0, SVG Export Plug-In . SVG Version: 6.00 Build 0)  -->
<svg version="1.1" id="Layer_1" xmlns="http://www.w3.org/2000/svg" xmlns:xlink="http://www.w3.org/1999/xlink" x="0px" y="0px"
	 viewBox="0 0 1366 1366" style="enable-background:new 0 0 1366 1366;" xml:space="preserve">
<style type="text/css">
	.st0{fill:#FAB231;}
	.st1{fill-rule:evenodd;clip-rule:evenodd;fill:#FAB231;}
	.st2{fill-rule:evenodd;clip-rule:evenodd;fill:#F07931;}
</style>
<g>
	<g>
		<path class="st0" d="M276.7,740.6h46.9c7.5,0,13.2,1.7,17.3,5.1s6.8,8.1,8.3,14.2c1.4,6.1,2.1,13.9,2.1,23.3
			c0,8.6-1.1,15.4-3.4,20.2c-2.2,4.9-6.2,8.2-11.7,10.1c4.6,0.9,8,3.3,10,6.9c2.1,3.7,3.1,8.6,3.1,14.9l-0.4,57.7h-29.8v-59.6
			c0-4.3-0.8-7-2.5-8.2c-1.7-1.2-4.7-1.8-9.1-1.8v69.6h-30.9V740.6z M315.1,797c4.3,0,6.4-4.6,6.4-13.8c0-4-0.2-7-0.5-9.1
			c-0.4-2-1-3.4-2-4.2c-0.9-0.8-2.3-1.2-4.1-1.2h-7.1V797H315.1z"/>
		<path class="st0" d="M356.1,893.1V740.6h61.1v29.5h-30v29.6h28.8v28.8h-28.8v35h31.9v29.6H356.1z"/>
		<path class="st0" d="M430.1,884.2c-6.2-6.9-9.2-17.9-9.2-33.2v-14.9h30v19c0,7.6,2.4,11.4,7.3,11.4c2.7,0,4.6-0.8,5.7-2.4
			c1.1-1.6,1.6-4.3,1.6-8.1c0-5-0.6-9.1-1.8-12.3c-1.2-3.3-2.7-6-4.5-8.2c-1.8-2.2-5.1-5.6-9.9-10.2l-13.1-13.1
			c-10.2-9.9-15.3-20.9-15.3-33c0-13,3-22.9,9-29.7c6-6.8,14.7-10.2,26.2-10.2c13.7,0,23.6,3.6,29.6,10.9c6,7.3,9.1,18.7,9.1,34.2
			h-31.1l-0.2-10.5c0-2-0.6-3.6-1.7-4.8c-1.1-1.2-2.7-1.8-4.7-1.8c-2.4,0-4.1,0.7-5.3,2c-1.2,1.3-1.8,3.1-1.8,5.3
			c0,5,2.8,10.1,8.5,15.4l17.7,17c4.1,4,7.6,7.8,10.3,11.4c2.7,3.6,4.9,7.9,6.6,12.8c1.7,4.9,2.5,10.7,2.5,17.5
			c0,15-2.8,26.4-8.3,34.2c-5.5,7.8-14.6,11.6-27.2,11.6C446.2,894.5,436.2,891,430.1,884.2z"/>
		<path class="st0" d="M513.5,893.1V769.9h-18.1v-29.3h66.7v29.3H544v123.2H513.5z"/>
		<path class="st0" d="M561.2,893.1L576,740.6h51.6l14.6,152.5h-28.9l-2.1-24.7h-18.5l-1.8,24.7H561.2z M595,844.1h13.8l-6.7-77.6
			h-1.4L595,844.1z"/>
		<path class="st0" d="M653.4,883.8c-6.1-7.1-9.1-17.6-9.1-31.6V740.6h29.6V851c0,4.9,0.5,8.6,1.4,11.4c0.9,2.7,3,4.1,6,4.1
			c3.1,0,5.1-1.3,6-4c0.9-2.7,1.4-6.5,1.4-11.4V740.6h29.6v111.6c0,14-3,24.5-9.1,31.6c-6.1,7.1-15.4,10.6-28,10.6
			C668.9,894.5,659.5,890.9,653.4,883.8z"/>
		<path class="st0" d="M724.9,740.6h46.9c7.5,0,13.2,1.7,17.3,5.1s6.8,8.1,8.3,14.2c1.4,6.1,2.1,13.9,2.1,23.3
			c0,8.6-1.1,15.4-3.4,20.2c-2.2,4.9-6.2,8.2-11.7,10.1c4.6,0.9,8,3.3,10,6.9c2.1,3.7,3.1,8.6,3.1,14.9l-0.4,57.7h-29.8v-59.6
			c0-4.3-0.8-7-2.5-8.2c-1.7-1.2-4.7-1.8-9.1-1.8v69.6h-30.9V740.6z M763.2,797c4.3,0,6.4-4.6,6.4-13.8c0-4-0.2-7-0.5-9.1
			c-0.4-2-1-3.4-2-4.2c-0.9-0.8-2.3-1.2-4.1-1.2h-7.1V797H763.2z"/>
		<path class="st0" d="M800.1,893.1l14.7-152.5h51.6l14.6,152.5h-28.9l-2.1-24.7h-18.5l-1.8,24.7H800.1z M833.9,844.1h13.8
			l-6.7-77.6h-1.4L833.9,844.1z"/>
		<path class="st0" d="M885,893.1V740.6h31.4l14,72.9v-72.9h29.5v152.5h-29.8l-15.3-76.3v76.3H885z"/>
		<path class="st0" d="M981.2,893.1V769.9h-18.1v-29.3h66.7v29.3h-18.1v123.2H981.2z"/>
		<path class="st0" d="M1033,893.1V740.6h61.1v29.5h-30v29.6h28.8v28.8h-28.8v35h31.9v29.6H1033z"/>
	</g>
	<g>
		<g>
			<path class="st0" d="M475.9,1020.8c7.3,0,10.5,4.3,10.5,11.4v5.6c0,7.4-3.5,11.3-10.9,11.3h-4.6v18.4h-5.2v-46.7H475.9z
				 M475.5,1044.5c3.9,0,5.7-1.8,5.7-6.3v-6.2c0-4.3-1.5-6.4-5.3-6.4h-5v18.9H475.5z"/>
			<path class="st0" d="M507.7,1020.8c7.3,0,10.4,3.7,10.4,10.7v3.8c0,5.1-1.8,8.3-5.8,9.6c4.3,1.3,5.9,4.7,5.9,9.7v7.3
				c0,2.1,0.1,4,0.9,5.6h-5.3c-0.6-1.3-0.9-2.5-0.9-5.7v-7.3c0-5.3-2.5-6.9-6.8-6.9h-3.7v20h-5.2v-46.7H507.7z M506.4,1042.9
				c4.1,0,6.6-1.3,6.6-6.4v-4.5c0-4.2-1.5-6.4-5.4-6.4h-5.1v17.3H506.4z"/>
			<path class="st0" d="M529.8,1032.1c0-7.1,3.5-11.7,10.7-11.7c7.2,0,10.7,4.6,10.7,11.7v24.2c0,7.1-3.5,11.7-10.7,11.7
				c-7.1,0-10.7-4.7-10.7-11.7V1032.1z M535,1056.5c0,4.3,1.8,6.7,5.5,6.7c3.8,0,5.5-2.5,5.5-6.7v-24.7c0-4.2-1.7-6.7-5.5-6.7
				c-3.7,0-5.5,2.5-5.5,6.7V1056.5z"/>
			<path class="st0" d="M561.5,1062.8c0.9,0.1,1.8,0.1,2.6,0.1c3.4-0.2,5.5-1.8,5.5-6.5v-35.5h5.1v35.2c0,8.7-4.3,11.5-9.9,11.6
				c-1.2,0-2.1,0.1-3.3-0.1V1062.8z"/>
			<path class="st0" d="M603.2,1041.5v4.7h-11.4v16.6h14v4.7h-19.2v-46.7h19.2v4.7h-14v15.9H603.2z"/>
			<path class="st0" d="M624.1,1067.5v-42h-8.6v-4.7h22.4v4.7h-8.6v42H624.1z"/>
			<path class="st0" d="M647.7,1032.1c0-7.1,3.5-11.7,10.7-11.7c7.2,0,10.7,4.6,10.7,11.7v24.2c0,7.1-3.5,11.7-10.7,11.7
				c-7.1,0-10.7-4.7-10.7-11.7V1032.1z M652.9,1056.5c0,4.3,1.8,6.7,5.5,6.7c3.8,0,5.5-2.5,5.5-6.7v-24.7c0-4.2-1.7-6.7-5.5-6.7
				c-3.7,0-5.5,2.5-5.5,6.7V1056.5z"/>
			<path class="st0" d="M713.7,1042.6v4.7H703v20.2h-5.2v-46.7h18.5v4.7H703v17H713.7z"/>
			<path class="st0" d="M732.3,1020.8v46.7h-5.2v-46.7H732.3z"/>
			<path class="st0" d="M765,1032.1v4.2H760v-4.5c0-4.2-1.7-6.7-5.5-6.7c-3.7,0-5.5,2.5-5.5,6.7v24.7c0,4.2,1.7,6.7,5.5,6.7
				c3.8,0,5.5-2.5,5.5-6.7v-6.1h4.9v5.8c0,7.1-3.3,11.7-10.5,11.7c-7.1,0-10.5-4.7-10.5-11.7v-24.2c0-7.1,3.3-11.7,10.5-11.7
				C761.6,1020.4,765,1025,765,1032.1z"/>
			<path class="st0" d="M783.2,1067.5v-42h-8.6v-4.7H797v4.7h-8.6v42H783.2z"/>
			<path class="st0" d="M811.3,1011.4h5.2l-6.2,6.9h-3.6L811.3,1011.4z M807.3,1020.8h5.2v46.7h-5.2V1020.8z"/>
			<path class="st0" d="M845.1,1032.1v4.2h-4.9v-4.5c0-4.2-1.7-6.7-5.5-6.7c-3.7,0-5.5,2.5-5.5,6.7v24.7c0,4.2,1.7,6.7,5.5,6.7
				c3.8,0,5.5-2.5,5.5-6.7v-6.1h4.9v5.8c0,7.1-3.3,11.7-10.5,11.7c-7.1,0-10.5-4.7-10.5-11.7v-24.2c0-7.1,3.3-11.7,10.5-11.7
				C841.8,1020.4,845.1,1025,845.1,1032.1z"/>
			<path class="st0" d="M861.7,1020.8v46.7h-5.2v-46.7H861.7z"/>
			<path class="st0" d="M873.3,1032.1c0-7.1,3.5-11.7,10.7-11.7c7.2,0,10.7,4.6,10.7,11.7v24.2c0,7.1-3.5,11.7-10.7,11.7
				c-7.1,0-10.7-4.7-10.7-11.7V1032.1z M878.5,1056.5c0,4.3,1.8,6.7,5.5,6.7c3.8,0,5.5-2.5,5.5-6.7v-24.7c0-4.2-1.7-6.7-5.5-6.7
				c-3.7,0-5.5,2.5-5.5,6.7V1056.5z"/>
		</g>
	</g>
	<g>
		<path class="st1" d="M525.4,589.4c27.7,59.3,87.8,100.4,157.6,100.4c69.7,0,129.9-41.1,157.6-100.4c0.7-1.4,0.6-3-0.3-4.3
			c-0.8-1.3-2.2-2.1-3.8-2.1h-307c-1.6,0-3,0.8-3.8,2.1C524.9,586.4,524.7,587.9,525.4,589.4L525.4,589.4z M558.9,595.1h31.3
			c11.9,38.2,35.4,67.7,64.2,79.6C611.2,665.3,575.7,635.1,558.9,595.1L558.9,595.1z M711.5,674.6c28.9-11.9,52.4-41.3,64.2-79.6
			h31.3C790.3,635.1,754.8,665.3,711.5,674.6z"/>
		<path class="st2" d="M579.7,522.2c-13.3,6.8-16.8,21.2-15.7,39.1c0.1,0.7-0.4,1.4-1.1,1.5c-0.7,0.2-1.4-0.1-1.7-0.7
			c-21.9-41.5,25.1-65.9,23.7-97.7c0-0.6,0.3-1.2,0.9-1.5c0.6-0.2,1.2-0.1,1.7,0.4c12.1,13,6.4,36.5,8.5,49.2
			c2.6,15.4,22.7,10.8,26.2-10.1c0.9-5.4,0.7-11.4-1.3-17.2c-1.8-5.1-3.5-10.6-4.9-16.5c-6-24.6-8.4-54.9,17.3-75.9
			c0.5-0.4,1.2-0.5,1.8-0.1c0.6,0.4,0.8,1.1,0.6,1.7c-11.5,35.4,5.9,51.1,20.6,49.3c21.4-2.5,32.1-28.7,30.6-47.5
			c-1.3-16.1-4.5-22.9-10.8-30.8c-15.5-19.6-30.4-30.5-20.5-55.8c0.3-0.7,0.9-1,1.6-0.9c0.7,0.1,1.2,0.7,1.3,1.4
			c2,23.6,25.8,30.8,47.5,47.8c31,24.3,42.3,51.3,27.1,89.1c-3.2,8.1-6.2,16.2-5.3,23.3c3.3,24.9,41,12.5,25-20.4
			c-0.3-0.6-0.2-1.3,0.3-1.8c0.5-0.5,1.2-0.5,1.8-0.2c16.4,9.3,26.8,28.1,20.1,49c-1.7,5.2-4.4,10.6-5.4,15.3
			c-3.5,15.8,13.1,14.3,18.2,4.1c1.7-3.4,2.2-7.5,1.4-11.2c-0.1-0.6,0.1-1.3,0.7-1.6c0.5-0.3,1.2-0.3,1.7,0.1
			c18.7,14.3,22.4,34.8,16,54.5c-0.2,0.7-0.9,1.1-1.7,1c-0.7-0.1-1.3-0.7-1.3-1.5c-0.1-11.7-5.2-20.2-13.8-24.8
			c-13.2,13.1-34.2,9.5-38.6-4.4c-4.4-13.8,7.7-27.6,6.9-35.7c-22.7,29.7-61.1,0.4-48.1-39c15.5-40,7.5-55.8-5.8-68.1
			c18.5,51-33.4,99.3-72.3,72.8c0.6,9.4,3.3,15.7,5.7,21.8c8.6,22.1,2.4,57.4-23.4,65.2C598.5,550.7,579.1,541.8,579.7,522.2z"/>
		<path class="st2" d="M863.6,618.4h208.1v6.4H863.6V618.4L863.6,618.4z M294.3,618.4h208.1v6.4H294.3V618.4z"/>
		<path class="st2" d="M923.6,1057.2h147v-6.4h-147V1057.2L923.6,1057.2z M295.4,1057.2h147v-6.4h-147V1057.2L295.4,1057.2z
			 M295.4,1040.1h147v-6.4h-147V1040.1L295.4,1040.1z M923.6,1040.1h147v-6.4h-147V1040.1z"/>
		<path class="st0" d="M1097.1,665.8H821.4c3.9-3.6,7.7-7.4,11.3-11.3h269.1h5l0.6,4.9c0.6,4.3,1.8,8.4,3.7,12.2
			c1.9,3.9,4.5,7.4,7.5,10.5c3,3,6.6,5.6,10.5,7.5c3.8,1.9,7.9,3.1,12.2,3.7l4.9,0.6v5v231.8v4.9l-4.9,0.6
			c-4.3,0.6-8.4,1.8-12.2,3.7c-3.9,1.9-7.4,4.5-10.5,7.5c-3,3-5.6,6.6-7.5,10.4c-1.9,3.8-3.1,7.9-3.7,12.2l-0.6,4.9h-5H264.1h-5
			l-0.6-4.9c-0.6-4.3-1.8-8.4-3.7-12.2c-1.9-3.9-4.5-7.4-7.5-10.4l0,0c-3-3-6.6-5.6-10.4-7.5c-3.8-1.9-7.9-3.1-12.2-3.7l-4.9-0.6
			v-4.9V698.9v-5l4.9-0.6c4.3-0.6,8.4-1.8,12.2-3.7c3.9-1.9,7.4-4.5,10.4-7.5c3.1-3.1,5.6-6.6,7.5-10.4c1.8-3.8,3.1-7.9,3.7-12.2
			l0.6-4.9h5h269.2c3.6,3.9,7.4,7.7,11.3,11.3H268.9c-0.9,3.8-2.2,7.4-3.9,10.8c-2.5,5-5.7,9.6-9.6,13.4c-3.9,3.9-8.4,7.1-13.4,9.6
			c-3.4,1.7-7,3-10.8,3.9v222.4c3.8,0.9,7.4,2.2,10.8,3.9c5,2.4,9.5,5.7,13.4,9.6l0,0h0c3.9,3.9,7.2,8.4,9.6,13.4
			c1.7,3.4,3,7,3.9,10.8h828.3c0.9-3.8,2.2-7.4,3.9-10.8c2.5-5,5.7-9.6,9.6-13.5c3.9-3.9,8.4-7.1,13.4-9.6c3.4-1.7,7-3,10.9-3.9
			V703.6c-3.8-0.9-7.4-2.2-10.9-3.9c-5-2.5-9.5-5.7-13.4-9.6l0,0c-3.9-3.9-7.2-8.4-9.6-13.4C1099.3,673.2,1098,669.6,1097.1,665.8z"
			/>
	</g>
</g>
</svg>
